Coordinates
version=1
nRows=26
nColumns=38
inDegrees=no

Units are S.I. units (second, meters, Newtons, ...)
If the header above contains a line with 'inDegrees', this indicates whether rotational values are in degrees (yes) or radians (no).

endheader
time	pelvis_tilt	pelvis_list	pelvis_rotation	pelvis_tx	pelvis_ty	pelvis_tz	hip_flexion_r	hip_adduction_r	hip_rotation_r	knee_angle_r	ankle_angle_r	subtalar_angle_r	mtp_angle_r	hip_flexion_l	hip_adduction_l	hip_rotation_l	knee_angle_l	ankle_angle_l	subtalar_angle_l	mtp_angle_l	lumbar_extension	lumbar_bending	lumbar_rotation	arm_flex_r	arm_add_r	arm_rot_r	elbow_flex_r	pro_sup_r	wrist_flex_r	wrist_dev_r	arm_flex_l	arm_add_l	arm_rot_l	elbow_flex_l	pro_sup_l	wrist_flex_l	wrist_dev_l
1.78	0.0660924	0.0448368	0.0360334	1.66884	1.0062	-0.249491	-0.0651016	-0.0483886	-0.107579	0.381178	-0.0380821	0	0	0.388969	-0.0357568	-0.0672749	1.18878	-0.145722	0	0	-0.157622	-0.00325034	0.00652486	0.0281814	-0.20145	-0.123424	0.909125	0.765904	0	0	-0.127191	-0.189518	-0.0506153	0.953374	0.797043	0	0
1.79	0.0667096	0.0497831	0.0317465	1.68011	1.00607	-0.249277	-0.0856935	-0.053677	-0.0999924	0.368751	-0.0330898	0	0	0.398468	-0.0273881	-0.0695909	1.14298	-0.143003	0	0	-0.160447	-0.00973865	0.0122198	0.0361888	-0.206876	-0.11506	0.925008	0.765441	0	0	-0.138481	-0.191047	-0.0626346	0.960532	0.786926	0	0
1.8	0.0680356	0.0533012	0.0275948	1.69149	1.00574	-0.249065	-0.107708	-0.0573871	-0.093761	0.354766	-0.0301775	0	0	0.404781	-0.0205563	-0.0710619	1.09288	-0.139027	0	0	-0.163743	-0.0146293	0.0187336	0.0433411	-0.212451	-0.10752	0.940428	0.76609	0	0	-0.14878	-0.192115	-0.0723823	0.966194	0.787136	0	0
1.81	0.0699496	0.0562084	0.022871	1.70297	1.00517	-0.248836	-0.130582	-0.0607389	-0.0879321	0.340052	-0.0287751	0	0	0.407767	-0.0144346	-0.0723876	1.03737	-0.137015	0	0	-0.167594	-0.0189781	0.024927	0.0514466	-0.218198	-0.0983822	0.954412	0.768992	0	0	-0.159439	-0.192045	-0.0845005	0.971662	0.796107	0	0
1.82	0.0701373	0.0583624	0.0173276	1.71452	1.00416	-0.248591	-0.149909	-0.0639038	-0.0869687	0.32978	-0.0224615	0	0	0.410618	-0.0094585	-0.0745085	0.979667	-0.131671	0	0	-0.169507	-0.0225535	0.0328281	0.0595032	-0.223334	-0.0928902	0.967112	0.768124	0	0	-0.168483	-0.19221	-0.0952277	0.975263	0.787836	0	0
1.83	0.0705223	0.0598661	0.0111514	1.72613	1.0029	-0.248309	-0.17001	-0.0662773	-0.0828531	0.317782	-0.0182122	0	0	0.410593	-0.00528163	-0.0764769	0.917166	-0.127872	0	0	-0.171633	-0.0255243	0.0408772	0.0666697	-0.228792	-0.0863905	0.981248	0.769073	0	0	-0.176928	-0.191824	-0.107189	0.9757	0.787913	0	0
1.84	0.0715454	0.0601255	0.00436716	1.73785	1.00148	-0.247977	-0.192001	-0.0672011	-0.072258	0.30267	-0.0169684	0	0	0.407882	-0.00269814	-0.0781303	0.850612	-0.127065	0	0	-0.174082	-0.0272249	0.0496861	0.0730669	-0.234571	-0.0791946	0.996218	0.772643	0	0	-0.184856	-0.191062	-0.116148	0.975266	0.800433	0	0
1.85	0.0706372	0.0587123	-0.00203723	1.74953	0.999693	-0.247698	-0.20961	-0.0668189	-0.0694543	0.292979	-0.0118644	0	0	0.406317	-0.00204104	-0.0801857	0.78394	-0.121537	0	0	-0.174477	-0.0270846	0.0582666	0.0793388	-0.239897	-0.073596	1.01074	0.771437	0	0	-0.192539	-0.18997	-0.124565	0.976254	0.792061	0	0
1.86	0.0705522	0.0574823	-0.00805211	1.76149	0.997749	-0.247452	-0.228611	-0.0664255	-0.063953	0.2826	-0.00745929	0	0	0.401311	-0.000977147	-0.0819493	0.713555	-0.117384	0	0	-0.175203	-0.0272449	0.0658952	0.0855574	-0.244668	-0.0676825	1.02317	0.772083	0	0	-0.200103	-0.188729	-0.132389	0.975802	0.792325	0	0
1.87	0.0705144	0.0560141	-0.0134142	1.77367	0.995617	-0.247239	-0.247628	-0.0655873	-0.0569479	0.272315	-0.00440534	0	0	0.394014	0.000285061	-0.0822099	0.640311	-0.114629	0	0	-0.175763	-0.0272019	0.0728946	0.0914282	-0.249085	-0.061322	1.03461	0.775233	0	0	-0.2076	-0.187285	-0.139626	0.974362	0.803004	0	0
1.88	0.0700048	0.0541036	-0.0178342	1.78598	0.993208	-0.247107	-0.264401	-0.0644882	-0.0564559	0.266757	0.00179377	0	0	0.385823	0.00168	-0.0814305	0.567447	-0.108762	0	0	-0.175453	-0.0266636	0.0785677	0.0973194	-0.252615	-0.0561866	1.04519	0.773126	0	0	-0.214557	-0.186083	-0.147522	0.97292	0.791865	0	0
1.89	0.0700991	0.0518876	-0.0207407	1.7985	0.990679	-0.247066	-0.281838	-0.0625762	-0.055887	0.261265	0.00491129	0	0	0.375777	0.00343774	-0.0782627	0.494917	-0.103673	0	0	-0.175413	-0.0258104	0.0822106	0.102981	-0.255188	-0.0508989	1.05373	0.775969	0	0	-0.22139	-0.185089	-0.153076	0.968431	0.803174	0	0
1.9	0.069357	0.0495231	-0.0238937	1.81099	0.988055	-0.247101	-0.296335	-0.0608697	-0.0559587	0.259958	0.0112492	0	0	0.365809	0.00478347	-0.0721315	0.422919	-0.103832	0	0	-0.174521	-0.0247794	0.0850855	0.109842	-0.257156	-0.0449299	1.05941	0.773533	0	0	-0.227157	-0.182985	-0.162083	0.963058	0.792385	0	0
1.91	0.0677232	0.0476668	-0.0276437	1.82354	0.985343	-0.247242	-0.308265	-0.0603124	-0.056466	0.261132	0.0160134	0	0	0.356133	0.00631656	-0.0631031	0.354227	-0.102596	0	0	-0.172435	-0.0241833	0.0886442	0.116175	-0.258497	-0.0403625	1.06404	0.773735	0	0	-0.230694	-0.179797	-0.170826	0.953885	0.79313	0	0
1.92	0.0658809	0.0466126	-0.0314358	1.83623	0.982621	-0.247451	-0.319043	-0.0608096	-0.0566433	0.263732	0.0188465	0	0	0.346398	0.00838302	-0.0526133	0.29096	-0.099504	0	0	-0.169954	-0.0245596	0.0918861	0.122157	-0.259121	-0.0356641	1.06619	0.77621	0	0	-0.234973	-0.177512	-0.176576	0.945775	0.804816	0	0
1.93	0.0642252	0.0466556	-0.0345812	1.84909	0.979916	-0.247732	-0.32858	-0.0624431	-0.0607375	0.270582	0.0263067	0	0	0.336441	0.0113817	-0.0370286	0.232976	-0.101163	0	0	-0.167373	-0.0262647	0.0934718	0.128135	-0.258298	-0.0317271	1.06691	0.773836	0	0	-0.240019	-0.175711	-0.184052	0.938688	0.793033	0	0
1.94	0.06255	0.0467336	-0.037078	1.86208	0.977281	-0.248121	-0.337309	-0.0640968	-0.0642756	0.278547	0.03076	0	0	0.328909	0.0137843	-0.0233999	0.187139	-0.101091	0	0	-0.164495	-0.0280201	0.0937327	0.133863	-0.256612	-0.0277995	1.06613	0.773542	0	0	-0.244969	-0.17386	-0.190413	0.93019	0.792912	0	0
1.95	0.0598138	0.0465938	-0.0405217	1.87505	0.974689	-0.248464	-0.34293	-0.0659694	-0.0645667	0.288954	0.0321857	0	0	0.326392	0.0145946	-0.0148168	0.157328	-0.0983479	0	0	-0.160465	-0.0297361	0.0945717	0.139369	-0.254162	-0.0241408	1.06376	0.775159	0	0	-0.248924	-0.172066	-0.195089	0.919912	0.801558	0	0
1.96	0.0565977	0.0474404	-0.0456753	1.888	0.972185	-0.248744	-0.344308	-0.0698134	-0.0684208	0.30727	0.0399223	0	0	0.328161	0.0154312	-0.0092031	0.143995	-0.0937172	0	0	-0.155998	-0.0328087	0.0962883	0.144732	-0.250957	-0.0208157	1.0601	0.77246	0	0	-0.252213	-0.169752	-0.202808	0.910657	0.792518	0	0
1.97	0.0543687	0.0481191	-0.0499945	1.90117	0.969969	-0.249124	-0.347516	-0.0732396	-0.0678783	0.322838	0.0402444	0	0	0.332633	0.0163071	-0.00710138	0.147406	-0.090057	0	0	-0.152301	-0.0357485	0.0969553	0.149203	-0.247592	-0.0164908	1.05486	0.773768	0	0	-0.255792	-0.167935	-0.20736	0.900239	0.801244	0	0
1.98	0.0525314	0.0500163	-0.0538381	1.91449	0.96805	-0.249606	-0.349975	-0.0785442	-0.0733361	0.341818	0.0440321	0	0	0.339538	0.0195023	-0.0106141	0.166497	-0.0825211	0	0	-0.149158	-0.0401804	0.0969543	0.152048	-0.243668	-0.0129084	1.04989	0.772237	0	0	-0.258551	-0.166002	-0.214071	0.890614	0.792885	0	0
1.99	0.0522246	0.0524237	-0.0573943	1.92805	0.966494	-0.250175	-0.353778	-0.0847869	-0.0765713	0.3606	0.0432755	0	0	0.345516	0.0238843	-0.0121561	0.194842	-0.0790682	0	0	-0.147455	-0.0453299	0.0970244	0.152912	-0.239447	-0.0105347	1.04559	0.772377	0	0	-0.261307	-0.164593	-0.218709	0.881964	0.792465	0	0
2	0.0529749	0.0538799	-0.0606092	1.94191	0.96524	-0.250932	-0.357826	-0.0904656	-0.0767652	0.380693	0.0391579	0	0	0.349348	0.0277624	-0.00813536	0.227339	-0.0789141	0	0	-0.146681	-0.0491439	0.0969869	0.151668	-0.235584	-0.00894771	1.04268	0.774024	0	0	-0.26384	-0.163152	-0.221432	0.873882	0.801222	0	0
2.01	0.0536517	0.0548069	-0.0638232	1.95609	0.964144	-0.251787	-0.360244	-0.0962801	-0.0804086	0.404435	0.035767	0	0	0.352628	0.0314883	-0.00628208	0.263192	-0.0705981	0	0	-0.14537	-0.0521833	0.0975578	0.148115	-0.231861	-0.00892696	1.04068	0.772344	0	0	-0.266228	-0.161546	-0.224665	0.86822	0.79215	0	0
2.02	0.0552671	0.0555511	-0.0666744	1.97056	0.96331	-0.252708	-0.363517	-0.101817	-0.0814769	0.427617	0.0280606	0	0	0.352478	0.0360133	-0.000904467	0.293272	-0.0668276	0	0	-0.144634	-0.0550714	0.0981667	0.142714	-0.228106	-0.00949111	1.03854	0.772153	0	0	-0.269468	-0.160658	-0.22318	0.865102	0.792266	0	0
2.03	0.0570747	0.0572973	-0.0705072	1.98524	0.96273	-0.253657	-0.365666	-0.109154	-0.0803766	0.45233	0.0184234	0	0	0.349296	0.0420557	0.00458224	0.314122	-0.0711968	0	0	-0.143649	-0.0591502	0.0997677	0.135983	-0.224219	-0.0105543	1.03541	0.773755	0	0	-0.271934	-0.159819	-0.221932	0.860471	0.801119	0	0
